<svg width="132" height="22" viewBox="0 0 132 22" fill="none" xmlns="http://www.w3.org/2000/svg">
<path fill-rule="evenodd" clip-rule="evenodd" d="M35.274 0L24.0185 22.0033H13.4465L18.1569 12.8842H17.9455C14.0594 17.9288 8.26138 21.2497 0 22.0033V13.0104C0 13.0104 5.285 12.6982 8.3919 9.43177H0V0.000173803H9.43159V7.75752L9.64329 7.75665L13.4974 0.000173803H20.6302V7.70834L20.8419 7.70799L24.8406 0H35.274Z" fill="#146EF5"/>
<path d="M96.651 19.574H99.6885V2.13867H96.651V19.574Z" fill="white"/>
<path fill-rule="evenodd" clip-rule="evenodd" d="M79.9056 19.396C80.5658 19.6705 81.2371 19.8077 81.9195 19.8077C83.047 19.8077 84.0558 19.5332 84.946 18.9843C85.8361 18.4354 86.5259 17.6788 87.0155 16.7145C87.5051 15.7428 87.7499 14.6412 87.7499 13.4099C87.7499 12.1786 87.4977 11.077 86.9933 10.1053C86.4889 9.13358 85.7879 8.38069 84.8903 7.84661C83.9928 7.30512 82.9729 7.03808 81.8305 7.0455C81.1036 7.0455 80.4063 7.18643 79.7387 7.46831C79.0711 7.75018 78.5148 8.15074 78.0697 8.66998C78.0354 8.70951 78.002 8.74944 77.9696 8.78977V2.1498H74.9209V19.574H77.9473L77.9412 17.9463C78.0196 18.0422 78.1032 18.136 78.1921 18.2277C78.6743 18.7247 79.2455 19.1141 79.9056 19.396ZM83.0211 16.581C82.5241 16.8851 81.9566 17.0372 81.3187 17.0372C80.6882 17.0372 80.1096 16.8814 79.583 16.5699C79.0563 16.2509 78.6372 15.817 78.3257 15.268C78.0215 14.7191 77.8695 14.096 77.8695 13.3988C77.862 12.7015 78.0104 12.0784 78.3145 11.5295C78.6261 10.9732 79.0452 10.543 79.5718 10.2388C80.0985 9.92728 80.6808 9.77522 81.3187 9.78264C81.9566 9.77522 82.5241 9.92357 83.0211 10.2277C83.5255 10.5244 83.9112 10.9509 84.1782 11.5073C84.4527 12.0562 84.5899 12.6867 84.5899 13.3988C84.5899 14.1109 84.4527 14.7414 84.1782 15.2903C83.9112 15.8392 83.5255 16.2694 83.0211 16.581Z" fill="white"/>
<path d="M39.6748 3.1957H43.1463L46.2517 14.5367L49.5552 3.1957H52.4481L56.031 14.3091L59.0128 3.1957H62.195L57.4996 19.574H54.5065L50.8634 8.71716L47.519 19.574H44.4926L39.6748 3.1957Z" fill="white"/>
<path fill-rule="evenodd" clip-rule="evenodd" d="M67.3215 19.8633C66.1124 19.8707 65.022 19.6037 64.0502 19.0622C63.0859 18.5133 62.3256 17.753 61.7693 16.7813C61.2204 15.8095 60.9459 14.7006 60.9459 13.4544C60.9459 12.2453 61.2278 11.1512 61.7915 10.1721C62.3553 9.19293 63.1193 8.4289 64.0836 7.87999C65.0479 7.33108 66.1235 7.05662 67.3103 7.05662C68.6455 7.05662 69.8138 7.35333 70.8152 7.94675C71.824 8.54017 72.5769 9.38208 73.0739 10.4725C73.5783 11.5555 73.76 12.7979 73.6191 14.1999H64.0884C64.115 14.7584 64.2544 15.2665 64.5064 15.7242C64.7883 16.2286 65.1814 16.6218 65.6859 16.9036C66.1903 17.1855 66.754 17.3265 67.3771 17.3265C67.8518 17.319 68.2932 17.2374 68.7012 17.0817C69.1091 16.9185 69.4541 16.6997 69.7359 16.4252C70.0252 16.1508 70.2292 15.8392 70.3479 15.4906H73.5301C73.3372 16.3436 72.9515 17.1039 72.3729 17.7715C71.7943 18.4317 71.0674 18.9472 70.1921 19.3181C69.3168 19.689 68.3599 19.8707 67.3215 19.8633ZM64.5176 11.1401C64.3398 11.4501 64.2166 11.7839 64.1481 12.1415H70.4658C70.4199 11.6897 70.2805 11.278 70.0475 10.9064C69.7804 10.4688 69.417 10.1313 68.9571 9.8939C68.4972 9.64912 67.9779 9.52672 67.3993 9.52672C66.7837 9.52672 66.2236 9.66766 65.7192 9.94953C65.2148 10.2314 64.8143 10.6283 64.5176 11.1401Z" fill="white"/>
<path d="M89.9863 7.31253C89.9863 6.31856 90.2126 5.43585 90.665 4.66441C91.1175 3.88555 91.7517 3.281 92.5677 2.85077C93.391 2.41313 94.3516 2.18689 95.4495 2.17205V4.87581C94.9376 4.88323 94.5 4.99079 94.1365 5.19848C93.7805 5.39876 93.506 5.69176 93.3132 6.07748C93.1356 6.43259 93.0398 6.84427 93.0257 7.31253H95.3827V9.88277H93.0239V19.574H89.9863V9.88277H88.028V7.31253H89.9863Z" fill="white"/>
<path fill-rule="evenodd" clip-rule="evenodd" d="M107.41 19.8411C106.172 19.8411 105.063 19.5703 104.084 19.0288C103.112 18.4799 102.348 17.7233 101.791 16.759C101.243 15.7873 100.968 14.6857 100.968 13.4544C100.968 12.2156 101.243 11.1104 101.791 10.1387C102.348 9.15955 103.112 8.39923 104.084 7.85774C105.063 7.31624 106.172 7.0455 107.41 7.0455C108.657 7.0455 109.769 7.31624 110.748 7.85774C111.735 8.39923 112.503 9.15584 113.052 10.1276C113.6 11.0993 113.879 12.2082 113.886 13.4544C113.879 14.6857 113.6 15.7873 113.052 16.759C112.51 17.7233 111.746 18.4799 110.759 19.0288C109.773 19.5703 108.657 19.8411 107.41 19.8411ZM107.41 17.0483C108.063 17.0483 108.642 16.8999 109.146 16.6032C109.651 16.2991 110.04 15.8763 110.314 15.3348C110.589 14.7859 110.726 14.1591 110.726 13.4544C110.726 12.7423 110.589 12.1118 110.314 11.5629C110.04 11.014 109.651 10.5912 109.146 10.2945C108.642 9.99033 108.063 9.83827 107.41 9.83827C106.765 9.83827 106.19 9.99033 105.686 10.2945C105.189 10.5912 104.803 11.014 104.529 11.5629C104.254 12.1118 104.121 12.7423 104.128 13.4544C104.128 14.1591 104.265 14.7859 104.54 15.3348C104.822 15.8763 105.207 16.2991 105.697 16.6032C106.194 16.8999 106.765 17.0483 107.41 17.0483Z" fill="white"/>
<path d="M117.168 7.31253H113.786L117.447 19.574H120.406L122.813 11.7426L125.413 19.574H128.328L132 7.31253H128.94L126.858 14.9446L124.556 7.31253H121.597L119.306 15.1127L117.168 7.31253Z" fill="white"/>
</svg>
